HIERARCHY
ROOT Hips
{
	OFFSET 0.000000 0.000000 0.000000
	CHANNELS 6 Xposition Yposition Zposition Zrotation Yrotation Xrotation 
	JOINT LeftUpLeg_virtual
	{
		OFFSET 0.000000 0.000000 0.000000
		CHANNELS 3 Zrotation Yrotation Xrotation
		JOINT LeftUpLeg
		{
			OFFSET 8.479694 -4.795517 -0.379053
			CHANNELS 3 Zrotation Yrotation Xrotation
			JOINT LeftLeg
			{
				OFFSET 0.485052 -32.551468 0.112863
				CHANNELS 3 Zrotation Yrotation Xrotation
				JOINT LeftFoot
				{
					OFFSET 0.438033 -32.635670 -3.012641
					CHANNELS 3 Zrotation Yrotation Xrotation
					JOINT LeftToeBase
					{
						OFFSET 0.970169 -13.225353 11.864223
						CHANNELS 3 Zrotation Yrotation Xrotation
						End Site
						{
							OFFSET 0.000000 0.000000 0.000000
						}
					}
				}
			}
		}
	}
	JOINT RightUpLeg_virtual
	{
		OFFSET 0.000000 0.000000 0.000000
		CHANNELS 3 Zrotation Yrotation Xrotation
		JOINT RightUpLeg
		{
			OFFSET -8.479694 -4.795517 -0.379053
			CHANNELS 3 Zrotation Yrotation Xrotation
			JOINT RightLeg
			{
				OFFSET -0.484100 -32.551483 0.112903
				CHANNELS 3 Zrotation Yrotation Xrotation
				JOINT RightFoot
				{
					OFFSET -0.438985 -32.635651 -3.012681
					CHANNELS 3 Zrotation Yrotation Xrotation
					JOINT RightToeBase
					{
						OFFSET -0.970169 -13.225354 11.864223
						CHANNELS 3 Zrotation Yrotation Xrotation
						End Site
						{
							OFFSET 0.000000 0.000000 0.000000
						}
					}
				}
			}
		}
	}
	JOINT Spine_virtual
	{
		OFFSET 0.000000 0.000000 0.000000
		CHANNELS 3 Zrotation Yrotation Xrotation
		JOINT Spine
		{
			OFFSET 0.000000 7.722015 1.166203
			CHANNELS 3 Zrotation Yrotation Xrotation
			JOINT Spine1
			{
				OFFSET 0.000000 12.024086 0.248766
				CHANNELS 3 Zrotation Yrotation Xrotation
				JOINT Spine2
				{
					OFFSET -0.000000 11.503036 -0.491240
					CHANNELS 3 Zrotation Yrotation Xrotation
					JOINT Neck_virtual
					{
						OFFSET 0.000000 0.000000 0.000000
						CHANNELS 3 Zrotation Yrotation Xrotation
						JOINT Neck
						{
							OFFSET 0.000000 18.430687 -3.123054
							CHANNELS 3 Zrotation Yrotation Xrotation
							JOINT Head
							{
								OFFSET -0.000000 9.051071 1.034021
								CHANNELS 3 Zrotation Yrotation Xrotation
								End Site
								{
									OFFSET 0.000000 0.000000 0.000000
								}
							}
						}
					}
					JOINT LeftShoulder_virtual
					{
						OFFSET 0.000000 0.000000 0.000000
						CHANNELS 3 Zrotation Yrotation Xrotation
						JOINT LeftShoulder
						{
							OFFSET 6.197824 13.665230 -4.064723
							CHANNELS 3 Zrotation Yrotation Xrotation
							JOINT LeftArm
							{
								OFFSET 7.778132 -0.187073 -1.709282
								CHANNELS 3 Zrotation Yrotation Xrotation
								JOINT LeftForeArm
								{
									OFFSET 21.954697 0.000000 -2.041093
									CHANNELS 3 Zrotation Yrotation Xrotation
									JOINT LeftHand
									{
										OFFSET 22.992908 0.000000 -0.870901
										CHANNELS 3 Zrotation Yrotation Xrotation
										End Site
										{
											OFFSET 0.000000 0.000000 0.000000
										}
									}
								}
							}
						}
					}
					JOINT RightShoulder_virtual
					{
						OFFSET 0.000000 0.000000 0.000000
						CHANNELS 3 Zrotation Yrotation Xrotation
						JOINT RightShoulder
						{
							OFFSET -6.197824 13.665230 -4.064723
							CHANNELS 3 Zrotation Yrotation Xrotation
							JOINT RightArm
							{
								OFFSET -7.778132 -0.187073 -1.709282
								CHANNELS 3 Zrotation Yrotation Xrotation
								JOINT RightForeArm
								{
									OFFSET -21.954697 0.000000 -2.041093
									CHANNELS 3 Zrotation Yrotation Xrotation
									JOINT RightHand
									{
										OFFSET -22.992908 0.000000 -0.870901
										CHANNELS 3 Zrotation Yrotation Xrotation
										End Site
										{
											OFFSET 0.000000 0.000000 0.000000
										}
									}
								}
							}
						}
					}
				}
			}
		}
	}
}
MOTION
Frames: 9
Frame Time: 0.033333
8.222759 81.694008 12.337026 179.890039 1.633269 -179.936675 -5.359289 0.368858 9.769893 4.331731 -0.290955 -23.375054 9.475414 6.864637 32.394819 -2.847949 -4.379456 -9.143760 0.000000 0.000000 0.000000 -1.947068 0.016053 9.631561 -2.017484 0.326465 -16.203039 -1.168496 2.459962 26.302379 7.294382 6.142600 -8.574978 0.000000 0.000000 0.000000 1.970488 2.450048 -3.279942 -4.980048 2.435958 1.096364 -0.135922 -2.405237 4.445107 -0.007327 0.005661 0.013897 -0.514997 -1.081407 5.007658 0.769045 -2.053450 -10.018195 0.000000 0.000000 0.000000 0.933291 -0.259845 2.036059 12.405741 2.711184 -4.026061 -7.568030 4.284283 -47.667952 0.144429 -32.879523 -6.124781 0.000000 0.000000 0.000000 -2.983456 0.916793 1.652823 4.515400 -16.046420 -4.805213 10.950651 -10.519738 -46.750883 0.844894 32.238390 -4.478222 0.000000 0.000000 0.000000 
8.226593 81.701584 12.341574 179.979105 1.704215 -179.869781 -5.235049 0.391069 9.865372 4.287978 -0.259585 -23.251386 9.647260 6.674520 32.655616 -2.834227 -4.348212 -9.012084 0.000000 0.000000 0.000000 -1.895933 0.117075 9.605246 -1.903323 0.159342 -16.213314 -1.076842 2.172920 26.461498 7.356057 6.203924 -8.487838 0.000000 0.000000 0.000000 2.015668 2.563763 -3.292056 -4.940769 2.536772 1.071915 -0.104186 -2.316125 4.459219 0.021225 -0.073928 0.032868 -0.575734 -1.140023 4.980678 0.777045 -2.075656 -10.063326 0.000000 0.000000 0.000000 0.849406 -0.294611 2.103763 12.383809 2.701168 -4.066298 -7.517888 4.227234 -47.727289 0.122992 -32.861915 -6.077171 0.000000 0.000000 0.000000 -3.051174 0.860946 1.605297 4.505130 -16.114254 -4.832948 10.951167 -10.611360 -46.898148 1.015370 32.287916 -4.291792 0.000000 0.000000 0.000000 
8.231207 81.700096 12.345821 179.905161 1.667924 -179.868483 -5.271283 0.359461 9.860623 4.254676 -0.277533 -23.257238 9.667452 6.670574 32.674498 -2.846526 -4.358925 -9.011306 0.000000 0.000000 0.000000 -1.949557 0.100251 9.614374 -1.925841 0.118840 -16.218595 -1.081584 2.138688 26.475541 7.357748 6.208363 -8.522183 0.000000 0.000000 0.000000 1.986888 2.464716 -3.298763 -4.969216 2.437810 1.063812 -0.127705 -2.393705 4.424769 0.015690 0.021317 -0.010204 -0.565063 -1.113269 5.041983 0.768009 -2.054601 -10.046635 0.000000 0.000000 0.000000 0.890851 -0.273691 2.157930 12.381605 2.726759 -3.938414 -7.513218 4.319941 -47.647403 0.112901 -32.918810 -6.051627 0.000000 0.000000 0.000000 -2.997203 0.925057 1.755850 4.510067 -16.022770 -4.837714 10.927213 -10.515849 -47.034820 1.074899 32.367423 -4.229951 0.000000 0.000000 0.000000 
8.234313 81.698158 12.342393 179.984145 1.768307 -179.899410 -5.207883 0.406350 9.876377 4.281653 -0.219905 -23.241397 9.660915 6.702691 32.686632 -2.868296 -4.381985 -9.039190 0.000000 0.000000 0.000000 -1.887647 0.126769 9.625964 -1.897339 0.157099 -16.212111 -1.087482 2.168558 26.483493 7.354375 6.207399 -8.519157 0.000000 0.000000 0.000000 2.032462 2.489885 -3.259607 -4.932957 2.459570 1.077898 -0.086495 -2.376151 4.436134 0.039919 0.049522 -0.003026 -0.625906 -1.171530 5.033075 0.771669 -2.066143 -10.026358 0.000000 0.000000 0.000000 0.838703 -0.346676 2.163690 12.423398 2.726758 -3.922195 -7.495818 4.417114 -47.702755 0.114729 -32.929455 -6.043542 0.000000 0.000000 0.000000 -3.079092 0.869765 1.716660 4.515644 -16.100711 -4.818086 10.968516 -10.600439 -46.952554 1.025302 32.455553 -4.313517 0.000000 0.000000 0.000000 
8.238520 81.699577 12.329547 179.905161 1.770672 -179.898344 -5.250642 0.391261 9.876021 4.246037 -0.207170 -23.230230 9.688530 6.722183 32.684074 -2.880249 -4.387288 -9.018939 0.000000 0.000000 0.000000 -1.948016 0.101976 9.635833 -1.927897 0.161860 -16.207008 -1.089548 2.157407 26.460225 7.368489 6.221174 -8.520815 0.000000 0.000000 0.000000 2.000892 2.524966 -3.270119 -4.964774 2.491184 1.079987 -0.125122 -2.346422 4.471294 -0.017984 0.074533 0.052854 -0.538729 -1.099633 4.976568 0.799803 -2.063562 -9.970888 0.000000 0.000000 0.000000 0.891799 -0.337791 2.186612 12.439160 2.752339 -3.888774 -7.453952 4.410917 -47.769510 0.109879 -32.941070 -5.995859 0.000000 0.000000 0.000000 -2.976553 0.790254 1.591355 4.507520 -16.129586 -4.871518 11.039111 -10.713959 -46.982016 1.150978 32.510348 -4.156960 0.000000 0.000000 0.000000 
8.243026 81.700211 12.313323 179.898071 1.854740 -179.872130 -5.256483 0.404345 9.864695 4.255579 -0.169600 -23.216590 9.678518 6.787042 32.684552 -2.890809 -4.389576 -9.027049 0.000000 0.000000 0.000000 -1.948441 0.144952 9.617411 -1.929610 0.175930 -16.211394 -1.101249 2.183035 26.461041 7.375089 6.227695 -8.520219 0.000000 0.000000 0.000000 1.995418 2.479684 -3.271129 -4.963899 2.442362 1.072271 -0.119710 -2.400129 4.449310 -0.016773 0.032088 0.013549 -0.510620 -1.068346 5.032279 0.798996 -2.086736 -9.950273 0.000000 0.000000 0.000000 0.920890 -0.189722 2.176454 12.510396 2.798846 -3.895907 -7.480950 4.641762 -47.857257 0.092544 -32.981068 -5.959379 0.000000 0.000000 0.000000 -2.960521 0.902274 1.687059 4.591700 -16.001006 -4.850444 11.036682 -10.760621 -46.862942 1.015613 32.487470 -4.331882 0.000000 0.000000 0.000000 
8.244358 81.699638 12.295893 179.896009 1.816120 -179.895640 -5.262005 0.381257 9.860783 4.270986 -0.163953 -23.184785 9.687853 6.784194 32.701853 -2.920416 -4.411704 -9.030938 0.000000 0.000000 0.000000 -1.946542 0.100771 9.632717 -1.917516 0.170087 -16.172175 -1.111698 2.171121 26.439249 7.386786 6.237236 -8.526047 0.000000 0.000000 0.000000 1.996216 2.469826 -3.249010 -4.950267 2.428576 1.087810 -0.093548 -2.433207 4.446932 0.023101 0.005123 0.032464 -0.531162 -1.125149 5.009950 0.815293 -2.073004 -9.912030 0.000000 0.000000 0.000000 0.903679 -0.297118 2.105413 12.503283 2.933590 -3.841055 -7.445191 4.735741 -47.921328 0.068821 -32.994076 -5.920707 0.000000 0.000000 0.000000 -2.970555 0.851076 1.672542 4.582848 -15.971576 -4.911966 11.125651 -10.798751 -46.883228 1.078159 32.481159 -4.278807 0.000000 0.000000 0.000000 
8.235926 81.698906 12.272781 179.976304 1.942354 -179.901459 -5.161468 0.448305 9.850736 4.248818 -0.066329 -23.160669 9.728280 6.813907 32.711302 -2.952136 -4.436964 -9.050947 0.000000 0.000000 0.000000 -1.893186 0.163837 9.614599 -1.892802 0.260524 -16.143903 -1.132390 2.166553 26.427235 7.378309 6.218015 -8.497811 0.000000 0.000000 0.000000 2.049958 2.473015 -3.240052 -4.889761 2.445038 1.082650 -0.048235 -2.425899 4.427376 0.031651 0.030038 -0.003583 -0.563894 -1.188042 5.005870 0.808458 -2.080369 -9.880678 0.000000 0.000000 0.000000 0.900792 -0.341729 2.136051 12.524351 2.888199 -3.850479 -7.334830 4.827405 -47.986119 0.015544 -32.943027 -5.776042 0.000000 0.000000 0.000000 -3.009882 0.870807 1.674728 4.733825 -15.861579 -4.850417 11.089588 -10.781460 -46.763700 1.038571 32.532792 -4.350375 0.000000 0.000000 0.000000 
8.226206 81.698021 12.242336 179.912524 1.915131 -179.862418 -5.215534 0.409669 9.831501 4.203035 -0.057899 -23.158257 9.759927 6.860865 32.711863 -2.980338 -4.456393 -9.030908 0.000000 0.000000 0.000000 -1.955485 0.137410 9.596889 -1.924604 0.285300 -16.129090 -1.143755 2.139425 26.383486 7.401627 6.233180 -8.496939 0.000000 0.000000 0.000000 1.996527 2.456961 -3.291170 -4.909729 2.439430 1.082096 -0.069103 -2.441395 4.450664 -0.010361 0.015964 0.007848 -0.498860 -1.160829 4.971670 0.815106 -2.063598 -9.859795 0.000000 0.000000 0.000000 0.970941 -0.311673 2.068514 12.535983 2.928559 -3.902686 -7.285423 4.945114 -48.018467 -0.016472 -32.908739 -5.700402 0.000000 0.000000 0.000000 -2.934146 0.856837 1.650098 4.797509 -15.791491 -4.878319 11.134343 -10.861459 -46.812645 1.063371 32.469268 -4.340426 0.000000 0.000000 0.000000 
